<?xml version="1.0" standalone="no"?>
<!DOCTYPE svg PUBLIC "-//W3C//DTD SVG 20010904//EN"
 "http://www.w3.org/TR/2001/REC-SVG-20010904/DTD/svg10.dtd">
<svg version="1.0" xmlns="http://www.w3.org/2000/svg"
 width="50.000000pt" height="50.000000pt" viewBox="0 0 50.000000 50.000000"
 preserveAspectRatio="xMidYMid meet">
<metadata>
Created by potrace 1.10, written by Peter Selinger 2001-2011
</metadata>
<g transform="translate(0.000000,50.000000) scale(0.050000,-0.050000)"
fill="#ffff00" stroke="none">
<path d="M0 710 l0 -290 430 0 430 0 0 -140 0 -140 -360 0 -360 0 0 110 0 110
-70 0 -70 0 0 -180 0 -180 500 0 500 0 0 280 0 280 -430 0 -430 0 0 150 0 150
360 0 360 0 0 -110 0 -110 70 0 70 0 0 180 0 180 -500 0 -500 0 0 -290z"/>
</g>
</svg>
